<svg width="99" height="29" viewBox="0 0 99 29" xmlns="http://www.w3.org/2000/svg" xmlns:xlink="http://www.w3.org/1999/xlink"><defs><path d="M100 57.5c0-1.163.16-2.212.479-3.146.319-.935.738-1.721 1.258-2.36a5.547 5.547 0 0 1 1.792-1.473c.675-.343 1.359-.515 2.052-.515.748 0 1.358.13 1.833.386.474.258.92.606 1.34 1.044l-.164-2.059v-4.633h4.705V64.65h-3.83l-.328-1.315h-.11a5.858 5.858 0 0 1-1.627 1.201c-.611.305-1.217.458-1.82.458-.856 0-1.627-.172-2.31-.515a4.921 4.921 0 0 1-1.752-1.487c-.483-.649-.857-1.435-1.121-2.36-.265-.925-.397-1.969-.397-3.132zm4.815-.057c0 1.296.178 2.212.533 2.746.356.533.853.8 1.491.8.365 0 .684-.071.958-.214.273-.143.538-.415.793-.815v-5.263a2.143 2.143 0 0 0-.903-.543 3.426 3.426 0 0 0-.957-.143c-.493 0-.935.257-1.327.772-.392.515-.588 1.401-.588 2.66zm9.007.057c0-1.163.187-2.207.561-3.132.374-.925.866-1.711 1.477-2.36a6.36 6.36 0 0 1 2.093-1.487 6.012 6.012 0 0 1 2.435-.515c1.003 0 1.878.181 2.626.544a5.207 5.207 0 0 1 1.86 1.487c.493.63.862 1.363 1.108 2.202.246.84.37 1.736.37 2.689 0 .439-.023.83-.069 1.173-.045.343-.087.6-.123.772h-7.797c.22.915.611 1.544 1.177 1.888.565.343 1.23.514 1.997.514.474 0 .934-.071 1.381-.214a7.2 7.2 0 0 0 1.41-.644l1.531 2.918a8.141 8.141 0 0 1-2.476 1.244c-.902.276-1.737.415-2.503.415a7.626 7.626 0 0 1-2.79-.5 6.296 6.296 0 0 1-2.23-1.46c-.629-.638-1.126-1.425-1.49-2.36-.365-.934-.548-1.992-.548-3.174zm8.535-1.602c0-.61-.132-1.125-.396-1.544-.265-.42-.753-.63-1.464-.63a2.1 2.1 0 0 0-1.381.487c-.392.324-.661.886-.807 1.687h4.048zm9.336 9.84v3.946h-4.705V50.35h3.83l.328 1.315h.11a6.455 6.455 0 0 1 1.723-1.201 4.577 4.577 0 0 1 1.997-.458c.802 0 1.532.172 2.188.515a4.9 4.9 0 0 1 1.683 1.459c.465.63.82 1.392 1.067 2.288.246.896.37 1.897.37 3.003 0 1.24-.16 2.336-.48 3.29-.319.953-.743 1.758-1.272 2.416-.529.658-1.135 1.159-1.819 1.502a4.672 4.672 0 0 1-2.12.515c-1.13 0-2.152-.477-3.064-1.43l.164 2.173zm0-5.435c.274.267.556.448.848.543.292.096.593.143.903.143.547 0 1.021-.267 1.422-.8.402-.534.602-1.488.602-2.86 0-1.183-.16-2.031-.478-2.546-.32-.515-.798-.772-1.437-.772-.364 0-.688.076-.97.228-.284.153-.58.42-.89.801v5.263zm9.226-15.56h4.706v15.045c0 .496.086.83.26 1.001.173.172.342.258.506.258h.232a.86.86 0 0 0 .26-.058l.547 3.604a4.56 4.56 0 0 1-.944.286 6.884 6.884 0 0 1-1.354.115c-.802 0-1.472-.13-2.01-.386a3.25 3.25 0 0 1-1.3-1.102c-.328-.476-.56-1.044-.698-1.701a10.773 10.773 0 0 1-.205-2.188V44.744zm5.506 12.757c0-1.182.187-2.24.56-3.175.375-.934.876-1.72 1.505-2.36a6.417 6.417 0 0 1 2.175-1.458 6.694 6.694 0 0 1 5.075 0c.812.334 1.532.82 2.161 1.459.63.638 1.135 1.425 1.518 2.36.383.934.575 1.992.575 3.174s-.192 2.24-.575 3.175c-.383.934-.889 1.72-1.518 2.36a6.452 6.452 0 0 1-2.161 1.458 6.694 6.694 0 0 1-5.075 0 6.417 6.417 0 0 1-2.175-1.459c-.629-.638-1.13-1.425-1.504-2.36-.374-.934-.561-1.992-.561-3.174zm4.815 0c0 1.087.15 1.95.451 2.588.301.64.807.959 1.518.959.712 0 1.218-.32 1.519-.959.3-.638.451-1.501.451-2.588 0-1.087-.15-1.95-.451-2.588-.301-.64-.807-.959-1.519-.959-.71 0-1.217.32-1.518.959-.3.638-.451 1.501-.451 2.588zm9.773 8.523c.128.038.27.077.424.115.155.038.306.057.452.057.638 0 1.117-.129 1.436-.386.319-.258.551-.606.697-1.044l.165-.63-5.198-13.785h4.705l1.642 5.491c.2.667.373 1.33.52 1.988.145.658.3 1.349.464 2.074h.11c.146-.687.287-1.364.424-2.031.137-.668.287-1.344.451-2.03l1.368-5.492h4.487l-4.596 14.072a21.679 21.679 0 0 1-1.108 2.517c-.374.705-.807 1.287-1.3 1.744a4.737 4.737 0 0 1-1.682 1.016c-.63.219-1.363.329-2.202.329-.475 0-.862-.024-1.163-.072a6.92 6.92 0 0 1-.917-.214l.821-3.719zM174.18 44h.82v9.21a13.292 13.292 0 0 1 2.148-1.845c.72-.486 1.536-.73 2.448-.73 1.35 0 2.344.42 2.982 1.26.639.838.958 2.154.958 3.946v8.81h-.821v-8.695c0-1.526-.246-2.66-.739-3.404-.492-.744-1.304-1.116-2.434-1.116-.821 0-1.573.23-2.257.687-.684.458-1.446 1.144-2.285 2.06V64.65h-.82V44zm11.196 13.843c0-1.106.155-2.102.465-2.989.31-.886.734-1.644 1.272-2.273a5.595 5.595 0 0 1 1.86-1.445 5.191 5.191 0 0 1 2.257-.5c.802 0 1.5.143 2.093.429a10.5 10.5 0 0 1 1.846 1.172h.055l.11-1.258h.71V71h-.82v-5.434l.055-2.746a11.222 11.222 0 0 1-2.011 1.516c-.739.438-1.564.658-2.476.658-1.66 0-2.977-.61-3.953-1.83-.976-1.221-1.463-2.994-1.463-5.32zm.875 0c0 .954.1 1.816.301 2.589.2.772.497 1.44.89 2.002.391.562.87.996 1.435 1.301.566.305 1.222.458 1.97.458.766 0 1.5-.205 2.202-.615.702-.41 1.427-1.006 2.175-1.788v-8.466c-.748-.686-1.436-1.173-2.065-1.459a4.739 4.739 0 0 0-1.984-.429c-.693 0-1.34.167-1.942.501a4.94 4.94 0 0 0-1.56 1.373 6.966 6.966 0 0 0-1.039 2.045 7.965 7.965 0 0 0-.383 2.488z" id="b"/><filter x="-1%" y="-3.7%" width="104.2%" height="114.8%" filterUnits="objectBoundingBox" id="a"><feOffset dx="1" dy="1" in="SourceAlpha" result="shadowOffsetOuter1"/><feGaussianBlur stdDeviation=".5" in="shadowOffsetOuter1" result="shadowBlurOuter1"/><feColorMatrix values="0 0 0 0 0 0 0 0 0 0 0 0 0 0 0 0 0 0 0.615743886 0" in="shadowBlurOuter1"/></filter></defs><g transform="translate(-100 -44)" fill="none" fill-rule="evenodd"><use fill="#000" filter="url(#a)" xlink:href="#b"/><use fill="#fff" xlink:href="#b"/></g></svg>
