<?xml version="1.0" encoding="UTF-8"?>
<svg width="164px" height="41px" viewBox="0 0 164 41" version="1.1" xmlns="http://www.w3.org/2000/svg" xmlns:xlink="http://www.w3.org/1999/xlink">
    <title>Group 3</title>
    <defs>
        <path d="M48.0801653,18.3296552 L52.0042521,18.3296552 L52.0042521,0.208965517 L48.0801653,0.208965517 L48.0801653,18.3296552 Z M102.519057,3.49034483 C100.777858,5.17965517 99.9196907,7.28551724 99.9196907,9.75896552 L99.9196907,9.75896552 C99.9196907,12.232069 100.777858,14.3382759 102.519057,16.0275862 L102.519057,16.0275862 C104.235737,17.7175862 106.369587,18.5744828 108.895396,18.5744828 L108.895396,18.5744828 C110.440097,18.5744828 111.887068,18.2317241 113.211788,17.5458621 L113.211788,17.5458621 L115.443023,20.1910345 L117.404894,18.5255172 L115.296254,16.0034483 C116.98807,14.3382759 117.846583,12.2565517 117.846583,9.75896552 L117.846583,9.75896552 C117.846583,7.28551724 116.98807,5.17965517 115.271735,3.49034483 L115.271735,3.49034483 C113.530536,1.80034483 111.421206,0.943448276 108.895396,0.943448276 L108.895396,0.943448276 C106.369587,0.943448276 104.235737,1.80034483 102.519057,3.49034483 L102.519057,3.49034483 Z M104.505102,14.24 C103.303667,13.0403448 102.71521,11.5465517 102.71521,9.75896552 L102.71521,9.75896552 C102.71521,7.97137931 103.303667,6.47758621 104.505102,5.25310345 L104.505102,5.25310345 C105.682708,4.05344828 107.154197,3.44103448 108.895396,3.44103448 L108.895396,3.44103448 C110.636595,3.44103448 112.107739,4.05344828 113.285345,5.25310345 L113.285345,5.25310345 C114.462261,6.47758621 115.051064,7.97137931 115.051064,9.75896552 L115.051064,9.75896552 C115.051064,11.3503448 114.560337,12.7710345 113.555055,13.9706897 L113.555055,13.9706897 L111.102803,11.0568966 L109.140587,12.7217241 L111.494763,15.5134483 C110.685633,15.8810345 109.827121,16.0765517 108.895396,16.0765517 L108.895396,16.0765517 C107.154197,16.0765517 105.682708,15.4648276 104.505102,14.24 L104.505102,14.24 Z M94.8200699,1.18827586 L94.8200699,8.55896552 L85.5991737,8.55896552 L85.5991737,1.18827586 L82.8768665,1.18827586 L82.8768665,18.3296552 L85.5991737,18.3296552 L85.5991737,10.9589655 L94.8200699,10.9589655 L94.8200699,18.3296552 L97.5178581,18.3296552 L97.5178581,1.18827586 L94.8200699,1.18827586 Z M0.164726695,1.18827586 L0.164726695,18.3296552 L7.30081144,18.3296552 C9.8269661,18.3296552 11.9359513,17.4972414 13.6039386,15.8562069 L13.6039386,15.8562069 C15.2712352,14.2155172 16.1052288,12.1834483 16.1052288,9.75896552 L16.1052288,9.75896552 C16.1052288,7.33482759 15.2712352,5.27758621 13.6039386,3.63724138 L13.6039386,3.63724138 C11.9359513,1.9962069 9.8269661,1.18827586 7.30081144,1.18827586 L7.30081144,1.18827586 L0.164726695,1.18827586 Z M4.3336589,4.86137931 L6.93337076,4.86137931 C8.37999576,4.86137931 9.55725636,5.32689655 10.4648072,6.23241379 L10.4648072,6.23241379 C11.3474936,7.13862069 11.7888369,8.31413793 11.7888369,9.75896552 L11.7888369,9.75896552 C11.7888369,11.2037931 11.3474936,12.3789655 10.4648072,13.2851724 L10.4648072,13.2851724 C9.55725636,14.1913793 8.37999576,14.6562069 6.93337076,14.6562069 L6.93337076,14.6562069 L4.3336589,14.6562069 L4.3336589,4.86137931 Z M55.951822,7.23689655 C54.627447,8.51034483 53.9654322,10.0775862 53.9654322,11.9627586 L53.9654322,11.9627586 C53.9654322,13.8482759 54.627447,15.4151724 55.951822,16.6644828 L55.951822,16.6644828 C57.251678,17.9375862 58.8948008,18.5744828 60.8321525,18.5744828 L60.8321525,18.5744828 C62.7698496,18.5744828 64.4126271,17.9375862 65.7370021,16.6644828 L65.7370021,16.6644828 C67.0368581,15.4151724 67.6988729,13.8482759 67.6988729,11.9627586 L67.6988729,11.9627586 C67.6988729,10.0775862 67.0368581,8.51034483 65.7370021,7.23689655 L65.7370021,7.23689655 C64.4126271,5.98793103 62.7698496,5.35103448 60.8321525,5.35103448 L60.8321525,5.35103448 C58.8948008,5.35103448 57.251678,5.98793103 55.951822,7.23689655 L55.951822,7.23689655 Z M58.8457627,14.1175862 C58.3063432,13.5544828 58.0366335,12.8196552 58.0366335,11.9627586 L58.0366335,11.9627586 C58.0366335,11.1055172 58.3063432,10.3713793 58.8457627,9.78310345 L58.8457627,9.78310345 C59.3606631,9.22034483 60.0230233,8.9262069 60.8321525,8.9262069 L60.8321525,8.9262069 C61.6416271,8.9262069 62.3036419,9.22034483 62.8430614,9.78310345 L62.8430614,9.78310345 C63.3579619,10.3713793 63.6280169,11.1055172 63.6280169,11.9627586 L63.6280169,11.9627586 C63.6280169,12.8196552 63.3579619,13.5544828 62.8430614,14.1175862 L62.8430614,14.1175862 C62.3036419,14.7055172 61.6416271,14.9993103 60.8321525,14.9993103 L60.8321525,14.9993103 C60.0230233,14.9993103 59.3606631,14.7055172 58.8457627,14.1175862 L58.8457627,14.1175862 Z M36.4574364,6.82034483 L36.4574364,5.5962069 L32.5336949,5.5962069 L32.5336949,23.2272414 L36.4574364,23.2272414 L36.4574364,17.1051724 C37.4385445,18.0848276 38.6644979,18.5744828 40.1114682,18.5744828 L40.1114682,18.5744828 C41.8036292,18.5744828 43.2505996,17.9375862 44.4033411,16.6644828 L44.4033411,16.6644828 C45.5560826,15.4151724 46.1200212,13.8482759 46.1200212,11.9627586 L46.1200212,11.9627586 C46.1200212,10.0775862 45.5560826,8.51034483 44.4033411,7.23689655 L44.4033411,7.23689655 C43.2505996,5.98793103 41.8036292,5.35103448 40.1114682,5.35103448 L40.1114682,5.35103448 C38.6644979,5.35103448 37.4385445,5.84103448 36.4574364,6.82034483 L36.4574364,6.82034483 Z M37.2665657,14.1175862 C36.7271462,13.5544828 36.4574364,12.8196552 36.4574364,11.9627586 L36.4574364,11.9627586 C36.4574364,11.1055172 36.7271462,10.3713793 37.2665657,9.78310345 L37.2665657,9.78310345 C37.7814661,9.22034483 38.4438263,8.9262069 39.2533008,8.9262069 L39.2533008,8.9262069 C40.0627754,8.9262069 40.7247903,9.22034483 41.2642097,9.78310345 L41.2642097,9.78310345 C41.7791102,10.3713793 42.0491653,11.1055172 42.0491653,11.9627586 L42.0491653,11.9627586 C42.0491653,12.8196552 41.7791102,13.5544828 41.2642097,14.1175862 L41.2642097,14.1175862 C40.7247903,14.7055172 40.0627754,14.9993103 39.2533008,14.9993103 L39.2533008,14.9993103 C38.4438263,14.9993103 37.7814661,14.7055172 37.2665657,14.1175862 L37.2665657,14.1175862 Z M19.0226525,7.23689655 C17.7227966,8.51034483 17.0849555,10.0775862 17.0849555,11.9627586 L17.0849555,11.9627586 C17.0849555,13.8482759 17.7473157,15.4151724 19.0713453,16.6644828 L19.0713453,16.6644828 C20.3712013,17.9375862 22.0143242,18.5744828 23.9516758,18.5744828 L23.9516758,18.5744828 C26.6004258,18.5744828 28.7339301,17.2765517 29.9357097,15.2931034 L29.9357097,15.2931034 L26.7475403,13.8237931 C26.1590826,14.7789655 25.2760508,15.2441379 24.0746165,15.2441379 L24.0746165,15.2441379 C22.7257225,15.2441379 21.6465381,14.5341379 21.1806758,13.3831034 L21.1806758,13.3831034 L30.4260911,13.3831034 C30.8432606,11.2282759 30.401572,9.34241379 29.1017161,7.75103448 L29.1017161,7.75103448 C27.8018602,6.15931034 26.0361419,5.35103448 23.8290805,5.35103448 L23.8290805,5.35103448 C21.9162479,5.35103448 20.3221631,5.98793103 19.0226525,7.23689655 L19.0226525,7.23689655 Z M23.8290805,8.68137931 C25.1044174,8.68137931 25.9871038,9.26896552 26.4529661,10.4444828 L26.4529661,10.4444828 L21.229714,10.4444828 C21.7200953,9.36689655 22.676339,8.68137931 23.8290805,8.68137931 L23.8290805,8.68137931 Z M77.7036886,5.5962069 L74.6871525,14.1913793 L71.6706165,5.5962069 L67.4526462,5.5962069 L72.5781674,18.8931034 L70.9101801,23.2272414 L74.8833051,23.2272414 L81.6768136,5.5962069 L77.7036886,5.5962069 Z" id="path-1"></path>
        <path d="M48.0801653,18.3296552 L52.0042521,18.3296552 L52.0042521,0.208965517 L48.0801653,0.208965517 L48.0801653,18.3296552 Z M102.519057,3.49034483 C100.777858,5.17965517 99.9196907,7.28551724 99.9196907,9.75896552 L99.9196907,9.75896552 C99.9196907,12.232069 100.777858,14.3382759 102.519057,16.0275862 L102.519057,16.0275862 C104.235737,17.7175862 106.369587,18.5744828 108.895396,18.5744828 L108.895396,18.5744828 C110.440097,18.5744828 111.887068,18.2317241 113.211788,17.5458621 L113.211788,17.5458621 L115.443023,20.1910345 L117.404894,18.5255172 L115.296254,16.0034483 C116.98807,14.3382759 117.846583,12.2565517 117.846583,9.75896552 L117.846583,9.75896552 C117.846583,7.28551724 116.98807,5.17965517 115.271735,3.49034483 L115.271735,3.49034483 C113.530536,1.80034483 111.421206,0.943448276 108.895396,0.943448276 L108.895396,0.943448276 C106.369587,0.943448276 104.235737,1.80034483 102.519057,3.49034483 L102.519057,3.49034483 Z M104.505102,14.24 C103.303667,13.0403448 102.71521,11.5465517 102.71521,9.75896552 L102.71521,9.75896552 C102.71521,7.97137931 103.303667,6.47758621 104.505102,5.25310345 L104.505102,5.25310345 C105.682708,4.05344828 107.154197,3.44103448 108.895396,3.44103448 L108.895396,3.44103448 C110.636595,3.44103448 112.107739,4.05344828 113.285345,5.25310345 L113.285345,5.25310345 C114.462261,6.47758621 115.051064,7.97137931 115.051064,9.75896552 L115.051064,9.75896552 C115.051064,11.3503448 114.560337,12.7710345 113.555055,13.9706897 L113.555055,13.9706897 L111.102803,11.0568966 L109.140587,12.7217241 L111.494763,15.5134483 C110.685633,15.8810345 109.827121,16.0765517 108.895396,16.0765517 L108.895396,16.0765517 C107.154197,16.0765517 105.682708,15.4648276 104.505102,14.24 L104.505102,14.24 Z M94.8200699,1.18827586 L94.8200699,8.55896552 L85.5991737,8.55896552 L85.5991737,1.18827586 L82.8768665,1.18827586 L82.8768665,18.3296552 L85.5991737,18.3296552 L85.5991737,10.9589655 L94.8200699,10.9589655 L94.8200699,18.3296552 L97.5178581,18.3296552 L97.5178581,1.18827586 L94.8200699,1.18827586 Z M0.164726695,1.18827586 L0.164726695,18.3296552 L7.30081144,18.3296552 C9.8269661,18.3296552 11.9359513,17.4972414 13.6039386,15.8562069 L13.6039386,15.8562069 C15.2712352,14.2155172 16.1052288,12.1834483 16.1052288,9.75896552 L16.1052288,9.75896552 C16.1052288,7.33482759 15.2712352,5.27758621 13.6039386,3.63724138 L13.6039386,3.63724138 C11.9359513,1.9962069 9.8269661,1.18827586 7.30081144,1.18827586 L7.30081144,1.18827586 L0.164726695,1.18827586 Z M4.3336589,4.86137931 L6.93337076,4.86137931 C8.37999576,4.86137931 9.55725636,5.32689655 10.4648072,6.23241379 L10.4648072,6.23241379 C11.3474936,7.13862069 11.7888369,8.31413793 11.7888369,9.75896552 L11.7888369,9.75896552 C11.7888369,11.2037931 11.3474936,12.3789655 10.4648072,13.2851724 L10.4648072,13.2851724 C9.55725636,14.1913793 8.37999576,14.6562069 6.93337076,14.6562069 L6.93337076,14.6562069 L4.3336589,14.6562069 L4.3336589,4.86137931 Z M55.951822,7.23689655 C54.627447,8.51034483 53.9654322,10.0775862 53.9654322,11.9627586 L53.9654322,11.9627586 C53.9654322,13.8482759 54.627447,15.4151724 55.951822,16.6644828 L55.951822,16.6644828 C57.251678,17.9375862 58.8948008,18.5744828 60.8321525,18.5744828 L60.8321525,18.5744828 C62.7698496,18.5744828 64.4126271,17.9375862 65.7370021,16.6644828 L65.7370021,16.6644828 C67.0368581,15.4151724 67.6988729,13.8482759 67.6988729,11.9627586 L67.6988729,11.9627586 C67.6988729,10.0775862 67.0368581,8.51034483 65.7370021,7.23689655 L65.7370021,7.23689655 C64.4126271,5.98793103 62.7698496,5.35103448 60.8321525,5.35103448 L60.8321525,5.35103448 C58.8948008,5.35103448 57.251678,5.98793103 55.951822,7.23689655 L55.951822,7.23689655 Z M58.8457627,14.1175862 C58.3063432,13.5544828 58.0366335,12.8196552 58.0366335,11.9627586 L58.0366335,11.9627586 C58.0366335,11.1055172 58.3063432,10.3713793 58.8457627,9.78310345 L58.8457627,9.78310345 C59.3606631,9.22034483 60.0230233,8.9262069 60.8321525,8.9262069 L60.8321525,8.9262069 C61.6416271,8.9262069 62.3036419,9.22034483 62.8430614,9.78310345 L62.8430614,9.78310345 C63.3579619,10.3713793 63.6280169,11.1055172 63.6280169,11.9627586 L63.6280169,11.9627586 C63.6280169,12.8196552 63.3579619,13.5544828 62.8430614,14.1175862 L62.8430614,14.1175862 C62.3036419,14.7055172 61.6416271,14.9993103 60.8321525,14.9993103 L60.8321525,14.9993103 C60.0230233,14.9993103 59.3606631,14.7055172 58.8457627,14.1175862 L58.8457627,14.1175862 Z M36.4574364,6.82034483 L36.4574364,5.5962069 L32.5336949,5.5962069 L32.5336949,23.2272414 L36.4574364,23.2272414 L36.4574364,17.1051724 C37.4385445,18.0848276 38.6644979,18.5744828 40.1114682,18.5744828 L40.1114682,18.5744828 C41.8036292,18.5744828 43.2505996,17.9375862 44.4033411,16.6644828 L44.4033411,16.6644828 C45.5560826,15.4151724 46.1200212,13.8482759 46.1200212,11.9627586 L46.1200212,11.9627586 C46.1200212,10.0775862 45.5560826,8.51034483 44.4033411,7.23689655 L44.4033411,7.23689655 C43.2505996,5.98793103 41.8036292,5.35103448 40.1114682,5.35103448 L40.1114682,5.35103448 C38.6644979,5.35103448 37.4385445,5.84103448 36.4574364,6.82034483 L36.4574364,6.82034483 Z M37.2665657,14.1175862 C36.7271462,13.5544828 36.4574364,12.8196552 36.4574364,11.9627586 L36.4574364,11.9627586 C36.4574364,11.1055172 36.7271462,10.3713793 37.2665657,9.78310345 L37.2665657,9.78310345 C37.7814661,9.22034483 38.4438263,8.9262069 39.2533008,8.9262069 L39.2533008,8.9262069 C40.0627754,8.9262069 40.7247903,9.22034483 41.2642097,9.78310345 L41.2642097,9.78310345 C41.7791102,10.3713793 42.0491653,11.1055172 42.0491653,11.9627586 L42.0491653,11.9627586 C42.0491653,12.8196552 41.7791102,13.5544828 41.2642097,14.1175862 L41.2642097,14.1175862 C40.7247903,14.7055172 40.0627754,14.9993103 39.2533008,14.9993103 L39.2533008,14.9993103 C38.4438263,14.9993103 37.7814661,14.7055172 37.2665657,14.1175862 L37.2665657,14.1175862 Z M19.0226525,7.23689655 C17.7227966,8.51034483 17.0849555,10.0775862 17.0849555,11.9627586 L17.0849555,11.9627586 C17.0849555,13.8482759 17.7473157,15.4151724 19.0713453,16.6644828 L19.0713453,16.6644828 C20.3712013,17.9375862 22.0143242,18.5744828 23.9516758,18.5744828 L23.9516758,18.5744828 C26.6004258,18.5744828 28.7339301,17.2765517 29.9357097,15.2931034 L29.9357097,15.2931034 L26.7475403,13.8237931 C26.1590826,14.7789655 25.2760508,15.2441379 24.0746165,15.2441379 L24.0746165,15.2441379 C22.7257225,15.2441379 21.6465381,14.5341379 21.1806758,13.3831034 L21.1806758,13.3831034 L30.4260911,13.3831034 C30.8432606,11.2282759 30.401572,9.34241379 29.1017161,7.75103448 L29.1017161,7.75103448 C27.8018602,6.15931034 26.0361419,5.35103448 23.8290805,5.35103448 L23.8290805,5.35103448 C21.9162479,5.35103448 20.3221631,5.98793103 19.0226525,7.23689655 L19.0226525,7.23689655 Z M23.8290805,8.68137931 C25.1044174,8.68137931 25.9871038,9.26896552 26.4529661,10.4444828 L26.4529661,10.4444828 L21.229714,10.4444828 C21.7200953,9.36689655 22.676339,8.68137931 23.8290805,8.68137931 L23.8290805,8.68137931 Z M77.7036886,5.5962069 L74.6871525,14.1913793 L71.6706165,5.5962069 L67.4526462,5.5962069 L72.5781674,18.8931034 L70.9101801,23.2272414 L74.8833051,23.2272414 L81.6768136,5.5962069 L77.7036886,5.5962069 Z" id="path-3"></path>
    </defs>
    <g id="Page-1" stroke="none" stroke-width="1" fill="none" fill-rule="evenodd">
        <g id="Artboard" transform="translate(-121.000000, -91.000000)">
            <g id="Group-3" transform="translate(121.000000, 91.000000)">
                <g id="Group-2" transform="translate(45.000000, 2.000000)">
                    <g id="Deploy-Text" transform="translate(0.894068, 0.404138)">
                        <path d="M111.494797,15.5133793 L109.140621,12.7216552 L111.102492,11.0568276 L113.55509,13.9706207 C114.560371,12.7709655 115.051098,11.3506207 115.051098,9.75924138 C115.051098,7.97131034 114.462295,6.47751724 113.28538,5.25303448 C112.107774,4.05337931 110.63663,3.44096552 108.895431,3.44096552 C107.154232,3.44096552 105.682742,4.05337931 104.505482,5.25303448 C103.303702,6.47751724 102.715244,7.97131034 102.715244,9.75924138 C102.715244,11.5464828 103.303702,13.0402759 104.505482,14.2402759 C105.682742,15.4644138 107.154232,16.0768276 108.895431,16.0768276 C109.827155,16.0768276 110.685668,15.8806207 111.494797,15.5133793 L111.494797,15.5133793 Z M115.296289,16.0033793 L117.404929,18.5254483 L115.443403,20.1906207 L113.211823,17.5461379 C111.887448,18.2316552 110.440132,18.5744138 108.895431,18.5744138 C106.369276,18.5744138 104.235772,17.7175172 102.519092,16.0275172 C100.777893,14.3382069 99.9193799,12.232 99.9193799,9.75924138 C99.9193799,7.2857931 100.777893,5.17958621 102.519092,3.49027586 C104.235772,1.80027586 106.369276,0.94337931 108.895431,0.94337931 C111.42124,0.94337931 113.530571,1.80027586 115.27177,3.49027586 C116.988104,5.17958621 117.846617,7.2857931 117.846617,9.75924138 C117.846617,12.2568276 116.988104,14.3382069 115.296289,16.0033793 L115.296289,16.0033793 Z M85.5992083,18.3295862 L82.8769011,18.3295862 L82.8769011,1.1882069 L85.5992083,1.1882069 L85.5992083,8.55889655 L94.8201044,8.55889655 L94.8201044,1.1882069 L97.5175472,1.1882069 L97.5175472,18.3295862 L94.8201044,18.3295862 L94.8201044,10.9588966 L85.5992083,10.9588966 L85.5992083,18.3295862 Z M74.6871871,14.1913103 L77.7033778,5.5957931 L81.6765028,5.5957931 L74.8833396,23.2271724 L70.9102146,23.2271724 L72.5782019,18.8930345 L67.4526807,5.5957931 L71.6706511,5.5957931 L74.6871871,14.1913103 Z M58.0363227,11.9626897 C58.0363227,12.8195862 58.3060324,13.5544138 58.8457972,14.1175172 C59.3606977,14.7054483 60.0227125,14.9992414 60.8321871,14.9992414 C61.6416617,14.9992414 62.3036765,14.7054483 62.843096,14.1175172 C63.3579964,13.5544138 63.6280515,12.8195862 63.6280515,11.9626897 C63.6280515,11.1057931 63.3579964,10.3713103 62.843096,9.78337931 C62.3036765,9.22027586 61.6416617,8.92613793 60.8321871,8.92613793 C60.0227125,8.92613793 59.3606977,9.22027586 58.8457972,9.78337931 C58.3060324,10.3713103 58.0363227,11.1057931 58.0363227,11.9626897 L58.0363227,11.9626897 Z M53.9654667,11.9626897 C53.9654667,10.0771724 54.6274816,8.50993103 55.9518566,7.23682759 C57.2517125,5.98786207 58.8948354,5.35096552 60.8321871,5.35096552 C62.7695388,5.35096552 64.4126617,5.98786207 65.7370367,7.23682759 C67.0368926,8.50993103 67.6989074,10.0771724 67.6989074,11.9626897 C67.6989074,13.8482069 67.0368926,15.4154483 65.7370367,16.6644138 C64.4126617,17.9375172 62.7695388,18.5744138 60.8321871,18.5744138 C58.8948354,18.5744138 57.2517125,17.9375172 55.9518566,16.6644138 C54.6274816,15.4154483 53.9654667,13.8482069 53.9654667,11.9626897 L53.9654667,11.9626897 Z M48.0801998,18.3295862 L52.0039413,18.3295862 L52.0039413,0.208551724 L48.0801998,0.208551724 L48.0801998,18.3295862 Z M39.2533354,14.9992414 C40.0624646,14.9992414 40.7244794,14.7054483 41.2642443,14.1175172 C41.7791447,13.5544138 42.0488544,12.8195862 42.0488544,11.9626897 C42.0488544,11.1057931 41.7791447,10.3713103 41.2642443,9.78337931 C40.7244794,9.22027586 40.0624646,8.92613793 39.2533354,8.92613793 C38.4438608,8.92613793 37.781846,9.22027586 37.2666002,9.78337931 C36.7271807,10.3713103 36.457471,11.1057931 36.457471,11.9626897 C36.457471,12.8195862 36.7271807,13.5544138 37.2666002,14.1175172 C37.781846,14.7054483 38.4438608,14.9992414 39.2533354,14.9992414 L39.2533354,14.9992414 Z M44.4033756,7.23682759 C45.5561172,8.50993103 46.1197104,10.0771724 46.1197104,11.9626897 C46.1197104,13.8482069 45.5561172,15.4154483 44.4033756,16.6644138 C43.2506341,17.9375172 41.8036638,18.5744138 40.1115028,18.5744138 C38.6645324,18.5744138 37.438579,18.0847586 36.457471,17.1051034 L36.457471,23.2271724 L32.5337294,23.2271724 L32.5337294,5.5957931 L36.457471,5.5957931 L36.457471,6.82027586 C37.438579,5.84096552 38.6645324,5.35096552 40.1115028,5.35096552 C41.8036638,5.35096552 43.2506341,5.98786207 44.4033756,7.23682759 L44.4033756,7.23682759 Z M21.2297485,10.4447586 L26.453346,10.4447586 C25.9874837,9.26924138 25.1044519,8.68165517 23.829115,8.68165517 C22.6767189,8.68165517 21.7201299,9.36717241 21.2297485,10.4447586 L21.2297485,10.4447586 Z M29.1017506,7.75096552 C30.4016066,9.34234483 30.8432951,11.2282069 30.4261256,13.3830345 L21.1807104,13.3830345 C21.6465727,14.534069 22.725757,15.244069 24.0743057,15.244069 C25.2760854,15.244069 26.1591172,14.7788966 26.7475748,13.824069 L29.9357443,15.2930345 C28.7339646,17.2764828 26.6004604,18.5744138 23.9517104,18.5744138 C22.0143587,18.5744138 20.3712358,17.9375172 19.0717252,16.6644138 C17.7473502,15.4154483 17.08499,13.8482069 17.08499,11.9626897 C17.08499,10.0771724 17.7228311,8.50993103 19.0226871,7.23682759 C20.3221977,5.98786207 21.9162824,5.35096552 23.829115,5.35096552 C26.0365218,5.35096552 27.8018947,6.15924138 29.1017506,7.75096552 L29.1017506,7.75096552 Z M4.33369343,4.86131034 L4.33369343,14.6564828 L6.9334053,14.6564828 C8.3800303,14.6564828 9.55729089,14.1913103 10.4648417,13.2851034 C11.3475282,12.3788966 11.7888714,11.2037241 11.7888714,9.75924138 C11.7888714,8.31406897 11.3475282,7.13889655 10.4648417,6.23268966 C9.55729089,5.32682759 8.3800303,4.86131034 6.9334053,4.86131034 L4.33369343,4.86131034 Z M0.164761229,18.3295862 L0.164761229,1.1882069 L7.30119131,1.1882069 C9.82700064,1.1882069 11.9363311,1.99648276 13.6039731,3.63717241 C15.2712697,5.27751724 16.1052633,7.33475862 16.1052633,9.75924138 C16.1052633,12.1833793 15.2712697,14.2154483 13.6039731,15.8561379 C11.9363311,17.4971724 9.82700064,18.3295862 7.30119131,18.3295862 L0.164761229,18.3295862 Z" id="Fill-15" fill="#FFFFFF" fill-rule="nonzero"></path>
                        <g id="Fill-17-Clipped">
                            <mask id="mask-2" fill="white">
                                <use xlink:href="#path-1"></use>
                            </mask>
                            <g id="path-1"></g>
                            <polygon id="Fill-17" fill="#40CF9F" fill-rule="nonzero" mask="url(#mask-2)" points="108.854508 12.6746207 111.116824 10.7808276 113.013425 13.0397931"></polygon>
                        </g>
                        <g id="Fill-20-Clipped">
                            <mask id="mask-4" fill="white">
                                <use xlink:href="#path-3"></use>
                            </mask>
                            <g id="path-1"></g>
                            <polygon id="Fill-20" fill="#4B25BB" fill-rule="nonzero" mask="url(#mask-4)" points="115.415603 20.4443448 113.514512 18.1802069 117.683099 18.546069"></polygon>
                        </g>
                    </g>
                    <g id="deploy-by-krystal-be19a0f1537b3887c8902d29269cb9e60766a905189903f8bf46a61149929f9d" transform="translate(57.000000, 27.000000)" fill="#FFFFFF" fill-rule="nonzero">
                        <g id="Group">
                            <path d="M33.2,8.4 L31.7,6.3 L30.5,6.3 L30.5,8.4 L29.3,8.4 L29.3,1.9 L32,1.9 C33.5,1.9 34.1,2.5 34.1,3.7 L34.1,4.5 C34.1,5.3 33.8,5.8 33.1,6.1 L34.7,8.4 L33.2,8.4 Z M32,3 L30.6,3 L30.6,5.2 L32,5.2 C32.7,5.2 32.9,5 32.9,4.4 L32.9,3.8 C32.9,3.2 32.6,3 32,3 Z" id="Shape"></path>
                            <polygon id="Path" points="38.9 1.9 40.2 1.9 38.1 6.5 38.1 8.4 36.9 8.4 36.9 6.5 34.9 1.9 36.2 1.9 37.5 5.1"></polygon>
                            <path d="M42.6,8.4 C41.9,8.4 41.2,8.3 40.6,8 L40.8,7 C41.4,7.2 42,7.3 42.7,7.3 C43.6,7.3 43.7,7.1 43.7,6.5 C43.7,5.9 43.7,5.7 42.5,5.5 C40.9,5.1 40.7,4.9 40.7,3.5 C40.7,2.1 41.2,1.7 42.9,1.7 C43.5,1.7 44.1,1.8 44.7,1.9 L44.7,3 C44.1,2.9 43.5,2.8 42.9,2.8 C42,2.8 41.9,3 41.9,3.5 C41.9,4.1 41.9,4.2 43,4.5 C44.8,4.9 44.9,5.2 44.9,6.5 C44.9,7.8 44.5,8.4 42.6,8.4 L42.6,8.4 Z" id="Path"></path>
                            <polygon id="Path" points="47.2 3 45.4 3 45.4 1.9 50.2 1.9 50.2 3 48.4 3 48.4 8.4 47.2 8.4"></polygon>
                            <path d="M54.3,7 L51.9,7 L51.5,8.4 L50.2,8.4 L52.3,1.9 L54,1.9 L56,8.4 L54.7,8.4 L54.3,7 Z M52.2,6 L54,6 L53.1,2.9 L52.2,6 Z" id="Shape"></path>
                            <polygon id="Path" points="27.1 8.4 28.6 8.4 26.1 5.1 28.4 1.9 27 1.9 25.1 4.5 24.8 4.5 24.8 1.9 23.6 1.9 23.6 8.4 24.8 8.4 24.8 5.7 25.1 5.7"></polygon>
                            <polygon id="Path" points="58.4 7.3 58.4 1.9 57.2 1.9 57.2 8.4 60.6 8.4 61.4 7.3"></polygon>
                            <polygon id="Path" points="18.2 8 18.2 4.4 15.3 3.7"></polygon>
                            <polygon id="Path" points="16.6 1.7 15.2 3.2 18.4 4 21.6 3.2 20.1 1.7"></polygon>
                            <polygon id="Path" points="18.7 8 21.6 3.7 18.7 4.4"></polygon>
                            <path d="M1.7,6.8 L1.7,7.2 C1.7,7.4 1.5,7.6 1.3,7.6 C1.1,7.6 0.9,7.4 0.9,7.2 L0.9,0.9 C0.9,0.7 1.1,0.5 1.3,0.5 C1.5,0.5 1.7,0.7 1.7,0.9 L1.7,3.2 C2.2,2.7 2.9,2.4 3.6,2.4 C5,2.4 6.1,3.6 6.1,5 C6.1,6.4 5,7.6 3.6,7.6 C2.9,7.6 2.2,7.3 1.7,6.8 Z M5.3,4.9 C5.3,3.8 4.5,3 3.5,3 C2.5,3 1.8,3.8 1.7,4.8 L1.7,5 C1.8,6 2.5,6.8 3.5,6.8 C4.5,6.8 5.3,6 5.3,4.9 Z" id="Shape"></path>
                            <path d="M7.5,7.1 L7.5,2.7 C7.5,2.5 7.7,2.3 7.9,2.3 C8.1,2.3 8.3,2.5 8.3,2.7 L8.3,6.1 L11.4,2.4 C11.5,2.3 11.6,2.3 11.7,2.3 C11.8,2.3 12,2.4 12,2.5 L12,2.9 L6.6,9.3 C6.5,9.4 6.4,9.4 6.3,9.4 C6.2,9.4 6.1,9.4 6,9.3 C5.9,9.2 5.9,9.1 5.9,9.1 C5.9,9 5.9,8.9 6,8.9 L7.5,7.1 Z" id="Path"></path>
                        </g>
                    </g>
                </g>
                <g id="Ship" transform="translate(16.000000, 20.500000) scale(-1, 1) translate(-16.000000, -20.500000) " fill-rule="nonzero">
                    <g id="Group-2" transform="translate(7.823655, 8.065172)" fill="#4B25BB">
                        <polygon id="Fill-1" points="15.6466532 23.4355517 15.6466532 15.6238276 23.4699625 23.4355517"></polygon>
                        <polygon id="Fill-14" points="-2.36176427e-13 23.4355172 7.82330932 23.4355172 7.82330932 -7.35044209e-15 -2.36176427e-13 -7.35044209e-15"></polygon>
                    </g>
                    <g id="Group-3" transform="translate(7.823586, 8.062931)" fill="#FFFFFF">
                        <polygon id="Fill-4" points="1.55815097e-13 31.2474138 7.82330932 31.2474138 15.6466186 31.2474138 7.82330932 23.4353448"></polygon>
                        <path d="M15.6467222,3.90586207 C15.6467222,6.06310345 13.8955083,7.81172414 11.7350676,7.81172414 C9.57462691,7.81172414 7.82341292,6.06310345 7.82341292,3.90586207 C7.82341292,1.74862069 9.57462691,-4.90029473e-15 11.7350676,-4.90029473e-15 C13.8955083,-4.90029473e-15 15.6467222,1.74862069 15.6467222,3.90586207" id="Fill-13"></path>
                    </g>
                    <g id="Group" transform="translate(0.000173, 0.251069)" fill="#40CF9F">
                        <polygon id="Fill-7" points="7.82330932 31.2496552 -2.36176427e-13 31.2496552 7.82330932 23.437931"></polygon>
                        <polygon id="Fill-9" points="15.6467222 0 7.82341292 7.81172414 15.6467222 7.81172414 23.4700316 7.81172414"></polygon>
                        <polygon id="Fill-11" points="15.6467913 31.2499655 23.4701006 31.2499655 23.4701006 15.6261724 15.6467913 15.6261724"></polygon>
                    </g>
                </g>
            </g>
        </g>
    </g>
</svg>
